<svg xmlns="http://www.w3.org/2000/svg" version="1.1" xmlns:xlink="http://www.w3.org/1999/xlink" xmlns:svgjs="http://svgjs.com/svgjs" width="1440" height="560" preserveAspectRatio="none" viewBox="0 0 1440 560"><g mask="url(&quot;#SvgjsMask1076&quot;)" fill="none"><rect width="1440" height="560" x="0" y="0" fill="#0e2a47"></rect><path d="M-107.42 32.75 a140.17 140.17 0 1 0 280.34 0 a140.17 140.17 0 1 0 -280.34 0z" fill="rgba(28, 83, 142, 0.4)" class="triangle-float3"></path><path d="M21.59,66.063C38.9,65.501,56.644,61.777,66.342,47.428C77.243,31.299,80.466,10.075,70.886,-6.871C61.179,-24.042,41.269,-33.074,21.59,-31.733C3.892,-30.527,-8.071,-16.013,-17.298,-0.862C-27.068,15.18,-37.931,34.265,-28.494,50.505C-19.08,66.706,2.863,66.671,21.59,66.063" fill="rgba(28, 83, 142, 0.4)" class="triangle-float2"></path><path d="M-72.09 -2.57 a69.52 69.52 0 1 0 139.04 0 a69.52 69.52 0 1 0 -139.04 0z" fill="rgba(28, 83, 142, 0.4)" class="triangle-float3"></path><path d="M1243.37 9.96 a94.59 94.59 0 1 0 189.18 0 a94.59 94.59 0 1 0 -189.18 0z" fill="rgba(28, 83, 142, 0.4)" class="triangle-float2"></path><path d="M1429.801,203.507C1468.619,202.636,1507.436,191.365,1528.98,159.062C1553.056,122.962,1561.948,75.611,1540.104,38.118C1518.376,0.824,1472.957,-10.442,1429.801,-11.167C1384.99,-11.92,1336.309,-3.908,1312.885,34.3C1288.656,73.822,1296.251,125.553,1322.604,163.692C1345.828,197.303,1388.957,204.423,1429.801,203.507" fill="rgba(28, 83, 142, 0.4)" class="triangle-float1"></path><path d="M1265.77 -12.43 a49.8 49.8 0 1 0 99.6 0 a49.8 49.8 0 1 0 -99.6 0z" fill="rgba(28, 83, 142, 0.4)" class="triangle-float3"></path><path d="M79.42,627.836C116.558,630.474,154.882,613.964,172.633,581.236C189.762,549.654,177.13,512.488,158.712,481.64C140.878,451.77,114.2,425.89,79.42,425.116C43.473,424.316,9.964,445.868,-6.227,477.972C-21.088,507.439,-9.746,540.792,6.629,569.445C23.171,598.391,46.165,625.474,79.42,627.836" fill="rgba(28, 83, 142, 0.4)" class="triangle-float2"></path><path d="M46.831,566.036C70.834,565.437,88.9,546.844,100.802,525.991C112.577,505.361,119.222,480.465,107.445,459.836C95.59,439.07,70.719,432.518,46.831,431.45C20.319,430.265,-10.228,431.25,-23.956,453.962C-37.962,477.135,-26.472,505.911,-12.013,528.804C1.272,549.838,21.961,566.656,46.831,566.036" fill="rgba(28, 83, 142, 0.4)" class="triangle-float2"></path><path d="M-75.19 448.52 a75.71 75.71 0 1 0 151.42 0 a75.71 75.71 0 1 0 -151.42 0z" fill="rgba(28, 83, 142, 0.4)" class="triangle-float3"></path><path d="M1286.55 414.78 a8.23 8.23 0 1 0 16.46 0 a8.23 8.23 0 1 0 -16.46 0z" fill="rgba(28, 83, 142, 0.4)" class="triangle-float1"></path><path d="M1219.47 481.86 a142.39 142.39 0 1 0 284.78 0 a142.39 142.39 0 1 0 -284.78 0z" fill="rgba(28, 83, 142, 0.4)" class="triangle-float1"></path><path d="M1345.647,514.732C1363.954,516.124,1382.754,508.271,1391.911,492.357C1401.049,476.476,1397.363,456.941,1387.941,441.228C1378.817,426.012,1363.38,414.65,1345.647,415.205C1328.693,415.735,1315.29,428.569,1307.7,443.738C1300.91,457.308,1303.001,472.757,1310.154,486.139C1317.83,500.499,1329.411,513.497,1345.647,514.732" fill="rgba(28, 83, 142, 0.4)" class="triangle-float1"></path></g><defs><mask id="SvgjsMask1076"><rect width="1440" height="560" fill="#ffffff"></rect></mask><style>
            @keyframes float1 {
                0%{transform: translate(0, 0)}
                50%{transform: translate(-10px, 0)}
                100%{transform: translate(0, 0)}
            }

            .triangle-float1 {
                animation: float1 5s infinite;
            }

            @keyframes float2 {
                0%{transform: translate(0, 0)}
                50%{transform: translate(-5px, -5px)}
                100%{transform: translate(0, 0)}
            }

            .triangle-float2 {
                animation: float2 4s infinite;
            }

            @keyframes float3 {
                0%{transform: translate(0, 0)}
                50%{transform: translate(0, -10px)}
                100%{transform: translate(0, 0)}
            }

            .triangle-float3 {
                animation: float3 6s infinite;
            }
        </style></defs></svg>